# vtk DataFile Version 3.0
Reyn Studio immutable engineering field evidence
ASCII
DATASET STRUCTURED_GRID
DIMENSIONS 3 3 3
POINTS 27 double
1.04719755119659763e0 1.04719755119659763e0 1.04719755119659763e0
3.14159265358979312e0 1.04719755119659763e0 1.04719755119659763e0
5.23598775598298793e0 1.04719755119659763e0 1.04719755119659763e0
1.04719755119659763e0 3.14159265358979312e0 1.04719755119659763e0
3.14159265358979312e0 3.14159265358979312e0 1.04719755119659763e0
5.23598775598298793e0 3.14159265358979312e0 1.04719755119659763e0
1.04719755119659763e0 5.23598775598298793e0 1.04719755119659763e0
3.14159265358979312e0 5.23598775598298793e0 1.04719755119659763e0
5.23598775598298793e0 5.23598775598298793e0 1.04719755119659763e0
1.04719755119659763e0 1.04719755119659763e0 3.14159265358979312e0
3.14159265358979312e0 1.04719755119659763e0 3.14159265358979312e0
5.23598775598298793e0 1.04719755119659763e0 3.14159265358979312e0
1.04719755119659763e0 3.14159265358979312e0 3.14159265358979312e0
3.14159265358979312e0 3.14159265358979312e0 3.14159265358979312e0
5.23598775598298793e0 3.14159265358979312e0 3.14159265358979312e0
1.04719755119659763e0 5.23598775598298793e0 3.14159265358979312e0
3.14159265358979312e0 5.23598775598298793e0 3.14159265358979312e0
5.23598775598298793e0 5.23598775598298793e0 3.14159265358979312e0
1.04719755119659763e0 1.04719755119659763e0 5.23598775598298793e0
3.14159265358979312e0 1.04719755119659763e0 5.23598775598298793e0
5.23598775598298793e0 1.04719755119659763e0 5.23598775598298793e0
1.04719755119659763e0 3.14159265358979312e0 5.23598775598298793e0
3.14159265358979312e0 3.14159265358979312e0 5.23598775598298793e0
5.23598775598298793e0 3.14159265358979312e0 5.23598775598298793e0
1.04719755119659763e0 5.23598775598298793e0 5.23598775598298793e0
3.14159265358979312e0 5.23598775598298793e0 5.23598775598298793e0
5.23598775598298793e0 5.23598775598298793e0 5.23598775598298793e0
FIELD FieldData 33
reyn_schema 1 52 unsigned_char
114 101 121 110 46 101 110 103 105 110 101 101 114 105 110 103 95 102 105 101 108 100 46 108 101 103 97 99 121 95 118 116
107 95 115 116 114 117 99 116 117 114 101 100 95 103 114 105 100 46 118 49
source_revision_id 1 17 unsigned_char
115 111 117 114 99 101 45 114 101 118 105 115 105 111 110 45 49
case_revision_id 1 15 unsigned_char
99 97 115 101 45 114 101 118 105 115 105 111 110 45 49
run_id 1 40 unsigned_char
114 117 110 45 49 49 49 49 49 49 49 49 45 50 50 50 50 45 51 51 51 51 45 52 52 52 52 45 53 53 53 53
53 53 53 53 53 53 53 53
model_sha256 1 64 unsigned_char
97 97 97 97 97 97 97 97 97 97 97 97 97 97 97 97 97 97 97 97 97 97 97 97 97 97 97 97 97 97 97 97
97 97 97 97 97 97 97 97 97 97 97 97 97 97 97 97 97 97 97 97 97 97 97 97 97 97 97 97 97 97 97 97
contract_kind 1 22 unsigned_char
101 120 116 101 114 110 97 108 95 102 105 120 101 100 95 98 111 100 121 46 118 49
field_sha256 1 64 unsigned_char
98 56 48 102 100 57 55 57 57 100 56 50 99 56 57 57 56 100 48 57 53 102 57 57 99 102 101 48 101 100 50 98
100 49 50 54 49 54 51 100 97 55 56 53 54 97 53 56 57 49 101 53 99 55 99 97 54 102 97 56 54 56 101 57
run_state 1 9 unsigned_char
115 117 99 99 101 101 100 101 100
coordinate_frame 1 30 unsigned_char
97 112 112 114 111 118 101 100 95 105 109 112 111 114 116 101 100 95 115 111 117 114 99 101 95 102 114 97 109 101
coordinate_units 1 1 unsigned_char
109
vector_frame 1 40 unsigned_char
97 112 112 114 111 118 101 100 95 105 109 112 111 114 116 101 100 95 115 111 117 114 99 101 95 102 114 97 109 101 95 99
97 114 116 101 115 105 97 110
point_sampling 1 61 unsigned_char
115 111 108 118 101 114 95 99 101 108 108 95 99 101 110 116 101 114 115 95 109 97 112 112 101 100 95 116 104 114 111 117
103 104 95 97 112 112 114 111 118 101 100 95 105 110 118 101 114 115 101 95 116 114 97 110 115 102 111 114 109
vtk_point_order 1 23 unsigned_char
120 95 102 97 115 116 101 115 116 95 116 104 101 110 95 121 95 116 104 101 110 95 122
reyn_scalar_storage_order 1 23 unsigned_char
122 95 102 97 115 116 101 115 116 95 116 104 101 110 95 121 95 116 104 101 110 95 120
reyn_vector_storage_order 1 44 unsigned_char
99 111 109 112 111 110 101 110 116 95 109 97 106 111 114 95 116 104 101 110 95 122 95 102 97 115 116 101 115 116 95 116
104 101 110 95 121 95 116 104 101 110 95 120
velocity_units 1 3 unsigned_char
109 47 115
velocity_source_class 1 16 unsigned_char
109 111 100 101 108 95 112 114 101 100 105 99 116 105 111 110
velocity_method 1 41 unsigned_char
68 105 114 101 99 116 70 108 111 119 77 97 112 32 102 105 120 101 100 45 98 111 100 121 32 109 111 100 101 108 32 112
114 101 100 105 99 116 105 111 110
recovered_pressure_units 1 2 unsigned_char
80 97
recovered_pressure_source_class 1 9 unsigned_char
114 101 99 111 118 101 114 101 100
recovered_pressure_method 1 48 unsigned_char
112 114 101 115 115 117 114 101 32 114 101 99 111 118 101 114 101 100 32 102 114 111 109 32 109 111 100 101 108 45 112 114
101 100 105 99 116 101 100 32 118 101 108 111 99 105 116 121
cp_units 1 1 unsigned_char
49
cp_source_class 1 7 unsigned_char
100 101 114 105 118 101 100
cp_method 1 44 unsigned_char
67 112 61 40 112 95 114 101 99 111 118 101 114 101 100 45 112 95 105 110 102 41 47 40 48 46 53 42 114 104 111 95
105 110 102 42 86 95 105 110 102 94 50 41
traction_units 1 2 unsigned_char
80 97
traction_source_class 1 7 unsigned_char
100 101 114 105 118 101 100
traction_method 1 29 unsigned_char
100 105 102 102 117 115 101 95 105 110 116 101 114 102 97 99 101 95 116 114 97 99 116 105 111 110 46 118 49
solid_occupancy_units 1 1 unsigned_char
49
solid_occupancy_source_class 1 7 unsigned_char
100 101 114 105 118 101 100
solid_occupancy_method 1 43 unsigned_char
116 104 114 101 101 45 97 120 105 115 32 109 97 106 111 114 105 116 121 45 118 111 116 101 32 118 111 120 101 108 32 111
99 99 117 112 97 110 99 121 32 118 50
grid_dimensions 3 1 int
3 3 3
meters_per_source_unit 1 1 double
1.00000000000000000e0
source_to_solver_transform_4x4 16 1 double
1.00000000000000000e0 0.00000000000000000e0 0.00000000000000000e0 0.00000000000000000e0 0.00000000000000000e0 1.00000000000000000e0 0.00000000000000000e0 0.00000000000000000e0 0.00000000000000000e0 0.00000000000000000e0 1.00000000000000000e0 0.00000000000000000e0 0.00000000000000000e0 0.00000000000000000e0 0.00000000000000000e0 1.00000000000000000e0
POINT_DATA 27
VECTORS velocity_m_per_s double
1.00000000000000000e0 0.00000000000000000e0 0.00000000000000000e0
1.00000000000000000e0 0.00000000000000000e0 0.00000000000000000e0
1.00000000000000000e0 0.00000000000000000e0 0.00000000000000000e0
1.00000000000000000e0 0.00000000000000000e0 0.00000000000000000e0
1.00000000000000000e0 0.00000000000000000e0 0.00000000000000000e0
1.00000000000000000e0 0.00000000000000000e0 0.00000000000000000e0
1.00000000000000000e0 0.00000000000000000e0 0.00000000000000000e0
1.00000000000000000e0 0.00000000000000000e0 0.00000000000000000e0
1.00000000000000000e0 0.00000000000000000e0 0.00000000000000000e0
1.00000000000000000e0 0.00000000000000000e0 0.00000000000000000e0
1.00000000000000000e0 0.00000000000000000e0 0.00000000000000000e0
1.00000000000000000e0 0.00000000000000000e0 0.00000000000000000e0
1.00000000000000000e0 0.00000000000000000e0 0.00000000000000000e0
1.00000000000000000e0 0.00000000000000000e0 0.00000000000000000e0
1.00000000000000000e0 0.00000000000000000e0 0.00000000000000000e0
1.00000000000000000e0 0.00000000000000000e0 0.00000000000000000e0
1.00000000000000000e0 0.00000000000000000e0 0.00000000000000000e0
1.00000000000000000e0 0.00000000000000000e0 0.00000000000000000e0
1.00000000000000000e0 0.00000000000000000e0 0.00000000000000000e0
1.00000000000000000e0 0.00000000000000000e0 0.00000000000000000e0
1.00000000000000000e0 0.00000000000000000e0 0.00000000000000000e0
1.00000000000000000e0 0.00000000000000000e0 0.00000000000000000e0
1.00000000000000000e0 0.00000000000000000e0 0.00000000000000000e0
1.00000000000000000e0 0.00000000000000000e0 0.00000000000000000e0
1.00000000000000000e0 0.00000000000000000e0 0.00000000000000000e0
1.00000000000000000e0 0.00000000000000000e0 0.00000000000000000e0
1.00000000000000000e0 0.00000000000000000e0 0.00000000000000000e0
SCALARS recovered_pressure_pa float 1
LOOKUP_TABLE default
1.000000000e5
1.000090000e5
1.000180000e5
1.000030000e5
1.000120000e5
1.000210000e5
1.000060000e5
1.000150000e5
1.000240000e5
1.000010000e5
1.000100000e5
1.000190000e5
1.000040000e5
1.000130000e5
1.000220000e5
1.000070000e5
1.000160000e5
1.000250000e5
1.000020000e5
1.000110000e5
1.000200000e5
1.000050000e5
1.000140000e5
1.000230000e5
1.000080000e5
1.000170000e5
1.000260000e5
SCALARS cp_dimensionless float 1
LOOKUP_TABLE default
0.000000000e0
8.999999762e-1
1.799999952e0
3.000000119e-1
1.200000048e0
2.099999905e0
6.000000238e-1
1.500000000e0
2.400000095e0
1.000000015e-1
1.000000000e0
1.899999976e0
4.000000060e-1
1.299999952e0
2.200000048e0
6.999999881e-1
1.600000024e0
2.500000000e0
2.000000030e-1
1.100000024e0
2.000000000e0
5.000000000e-1
1.399999976e0
2.299999952e0
8.000000119e-1
1.700000048e0
2.599999905e0
VECTORS traction_pa double
1.00000000000000000e1 2.00000000000000000e1 3.00000000000000000e1
1.00000000000000000e1 2.00000000000000000e1 3.00000000000000000e1
1.00000000000000000e1 2.00000000000000000e1 3.00000000000000000e1
1.00000000000000000e1 2.00000000000000000e1 3.00000000000000000e1
1.00000000000000000e1 2.00000000000000000e1 3.00000000000000000e1
1.00000000000000000e1 2.00000000000000000e1 3.00000000000000000e1
1.00000000000000000e1 2.00000000000000000e1 3.00000000000000000e1
1.00000000000000000e1 2.00000000000000000e1 3.00000000000000000e1
1.00000000000000000e1 2.00000000000000000e1 3.00000000000000000e1
1.00000000000000000e1 2.00000000000000000e1 3.00000000000000000e1
1.00000000000000000e1 2.00000000000000000e1 3.00000000000000000e1
1.00000000000000000e1 2.00000000000000000e1 3.00000000000000000e1
1.00000000000000000e1 2.00000000000000000e1 3.00000000000000000e1
1.00000000000000000e1 2.00000000000000000e1 3.00000000000000000e1
1.00000000000000000e1 2.00000000000000000e1 3.00000000000000000e1
1.00000000000000000e1 2.00000000000000000e1 3.00000000000000000e1
1.00000000000000000e1 2.00000000000000000e1 3.00000000000000000e1
1.00000000000000000e1 2.00000000000000000e1 3.00000000000000000e1
1.00000000000000000e1 2.00000000000000000e1 3.00000000000000000e1
1.00000000000000000e1 2.00000000000000000e1 3.00000000000000000e1
1.00000000000000000e1 2.00000000000000000e1 3.00000000000000000e1
1.00000000000000000e1 2.00000000000000000e1 3.00000000000000000e1
1.00000000000000000e1 2.00000000000000000e1 3.00000000000000000e1
1.00000000000000000e1 2.00000000000000000e1 3.00000000000000000e1
1.00000000000000000e1 2.00000000000000000e1 3.00000000000000000e1
1.00000000000000000e1 2.00000000000000000e1 3.00000000000000000e1
1.00000000000000000e1 2.00000000000000000e1 3.00000000000000000e1
SCALARS solid_occupancy float 1
LOOKUP_TABLE default
5.000000000e-1
5.000000000e-1
5.000000000e-1
5.000000000e-1
5.000000000e-1
5.000000000e-1
5.000000000e-1
5.000000000e-1
5.000000000e-1
5.000000000e-1
5.000000000e-1
5.000000000e-1
5.000000000e-1
5.000000000e-1
5.000000000e-1
5.000000000e-1
5.000000000e-1
5.000000000e-1
5.000000000e-1
5.000000000e-1
5.000000000e-1
5.000000000e-1
5.000000000e-1
5.000000000e-1
5.000000000e-1
5.000000000e-1
5.000000000e-1
